Input #0, mov,mp4,m4a,3gp,3g2,mj2, from '/home/hbattu/projects/huberman-gpt/huberman-audio/mp3/tmpkrjjjzz7.mp4':
  Metadata:
    major_brand     : dash
    minor_version   : 0
    compatible_brands: iso6mp41
    creation_time   : 2022-12-05T00:58:16.000000Z
  Duration: 02:41:45.87, start: 0.000000, bitrate: 129 kb/s
    Stream #0:0(eng): Audio: aac (LC) (mp4a / 0x6134706D), 44100 Hz, stereo, fltp, 0 kb/s (default)
    Metadata:
      creation_time   : 2022-12-05T00:58:16.000000Z
      handler_name    : ISO Media file produced by Google Inc.
Stream mapping:
  Stream #0:0 -> #0:0 (aac (native) -> mp3 (libmp3lame))
Press [q] to stop, [?] for help
[graph_0_in_0_0 @ 0x55e1445c7200] tb:1/44100 samplefmt:fltp samplerate:44100 chlayout:0x3
Output #0, mp3, to '../huberman-audio/mp3/6I5I56uVvLw.mp3':
  Metadata:
    major_brand     : dash
    minor_version   : 0
    compatible_brands: iso6mp41
    TSSE            : Lavf58.29.100
    Stream #0:0(eng): Audio: mp3 (libmp3lame), 44100 Hz, stereo, fltp, delay 1105 (default)
    Metadata:
      creation_time   : 2022-12-05T00:58:16.000000Z
      handler_name    : ISO Media file produced by Google Inc.
      encoder         : Lavc58.54.100 libmp3lame
No more output streams to write to, finishing.
size=  151655kB time=02:41:45.87 bitrate= 128.0kbits/s speed=89.3x    
[AVIOContext @ 0x55e1444b1900] Statistics: 0 seeks, 218 writeouts
video:0kB audio:151655kB subtitle:0kB other streams:0kB global headers:0kB muxing overhead: 0.000223%
Input file #0 (/home/hbattu/projects/huberman-gpt/huberman-audio/mp3/tmpkrjjjzz7.mp4):
  Input stream #0:0 (audio): 417997 packets read (155293942 bytes); 417997 frames decoded (428028928 samples); 
  Total: 417997 packets (155293942 bytes) demuxed
Output file #0 (../huberman-audio/mp3/6I5I56uVvLw.mp3):
  Output stream #0:0 (audio): 371553 frames encoded (428028928 samples); 371554 packets muxed (155294406 bytes); 
  Total: 371554 packets (155294406 bytes) muxed
[AVIOContext @ 0x55e1444dd780] Statistics: 2 seeks, 594 writeouts
[AVIOContext @ 0x55e1444ba880] Statistics: 157079462 bytes read, 0 seeks
